# xmcd
#
# Track frame offsets: 
#        150
#        31603
#        43791
#        108581
#        133444
#        161648
#
# Disc length: 3949 seconds
#
# Revision: 5
# Processed by: cddbd v1.5.2PL0 Copyright (c) Steve Scherf et al.
# Submitted via: ExactAudioCopy v1.3
#
DISCID=4e0f6b06
DTITLE=Franz Liszt - Great Liszt interpreters - Vol.2 - Lazar Berman &
DTITLE=Sviatoslav Richter
DYEAR=1900
DGENRE=Classique
TTITLE0=Années de pélerinage - Book I. Suisse - Chapelle de Guillaume T
TTITLE0=ell  [Lazar Berman, piano - 1972]
TTITLE1=Années de pélerinage - Book I. Suisse - Au lac de Wallenstadt
TTITLE2=Années de pélerinage - Book I. Suisse - Vallée d'Obermann
TTITLE3=Années de pélerinage - Book I. Suisse - Le Mal du Pays
TTITLE4=Années de pélerinage - Book I. Suisse - Les Cloches de Genève
TTITLE5=Piano Sonata in B minor    [Sviatoslav Richter, piano - rec.196
TTITLE5=5]
EXTD=
EXTT0=
EXTT1=
EXTT2=
EXTT3=
EXTT4=
EXTT5=
PLAYORDER=
